<?xml version="1.0"?>
<svg width="448" height="512" xmlns="http://www.w3.org/2000/svg" xmlns:svg="http://www.w3.org/2000/svg">
 <!--! Font Awesome Pro 6.4.2 by @fontawesome - https://fontawesome.com License - https://fontawesome.com/license (Commercial License) Copyright 2023 Fonticons, Inc. -->
 <g class="layer">
  <title>Layer 1</title>
  <path d="m135.2,17.7l-7.2,14.3l-96,0c-17.7,0 -32,14.3 -32,32s14.3,32 32,32l384,0c17.7,0 32,-14.3 32,-32s-14.3,-32 -32,-32l-96,0l-7.2,-14.3c-5.4,-10.9 -16.5,-17.7 -28.6,-17.7l-120.4,0c-12.1,0 -23.2,6.8 -28.6,17.7zm280.8,110.3l-384,0l21.2,339c1.6,25.3 22.6,45 47.9,45l245.8,0c25.3,0 46.3,-19.7 47.9,-45l21.2,-339z" fill="#ffffff" id="svg_1"/>
 </g>
</svg>