<?xml version="1.0"?>
<svg width="512" height="512" xmlns="http://www.w3.org/2000/svg" xmlns:svg="http://www.w3.org/2000/svg">
 <!--! Font Awesome Pro 6.4.2 by @fontawesome - https://fontawesome.com License - https://fontawesome.com/license (Commercial License) Copyright 2023 Fonticons, Inc. -->
 <g class="layer">
  <title>Layer 1</title>
  <path d="m288,448l-224,0l0,-224l64,0l0,-64l-64,0c-35.3,0 -64,28.7 -64,64l0,224c0,35.3 28.7,64 64,64l224,0c35.3,0 64,-28.7 64,-64l0,-64l-64,0l0,64zm-64,-96l224,0c35.3,0 64,-28.7 64,-64l0,-224c0,-35.3 -28.7,-64 -64,-64l-224,0c-35.3,0 -64,28.7 -64,64l0,224c0,35.3 28.7,64 64,64z" fill="#ffffff" id="svg_1"/>
 </g>
</svg>